<svg width="98" height="40" viewBox="0 0 98 40" fill="none" xmlns="http://www.w3.org/2000/svg">
<g clip-path="url(#clip0_73_7341)">
<path d="M17.2887 20.54C13.2897 17.8232 11.0795 19.2772 7.7772 16.6785C5.44949 14.8447 5.18003 13.2219 5.46383 11.8972C4.23554 12.5632 3.18086 13.4988 2.3822 14.631C2.3822 15.59 2.70614 16.746 3.60913 18.1691C6.00849 21.9519 8.76906 21.2628 11.8335 25.3972C12.4279 26.2198 12.8954 27.1239 13.2209 28.0803C14.5293 27.5782 15.7016 26.7861 16.6465 25.7659C17.5913 24.7458 18.2829 23.5252 18.6675 22.1994C18.7057 22.07 18.7401 21.9407 18.7707 21.8113C18.3258 21.3354 17.8288 20.909 17.2887 20.54Z" fill="url(#paint0_linear_73_7341)"/>
<path d="M7.68253 16.7037C11.0107 19.2828 13.2323 17.8428 17.2599 20.5344C17.8041 20.9016 18.3059 21.326 18.7563 21.8C18.8947 21.2469 18.9764 20.6816 19 20.1125C18.7063 19.8868 18.398 19.6801 18.0769 19.4937C13.8744 17.0609 11.7531 18.65 8.25873 16.2791C5.8823 14.6759 5.44657 13.1403 5.5899 11.8466L5.35197 11.9675C5.06817 13.2753 5.33763 14.8869 7.68253 16.7037Z" fill="#FFCF06"/>
<path d="M2.76057 19.1084C1.90058 17.7697 1.56805 16.6813 1.57091 15.7812C1.02392 16.5367 0.608363 17.3759 0.341137 18.2647C-0.997578 22.7366 1.71712 27.3969 6.40406 28.6709C8.26287 29.1818 10.2399 29.0921 12.0427 28.415C11.7304 27.5093 11.2789 26.6557 10.704 25.8838C7.73991 22.0053 5.0768 22.6606 2.76057 19.1084Z" fill="url(#paint1_linear_73_7341)"/>
<path d="M11.5066 15.6716C12.8001 15.6716 13.8486 14.6428 13.8486 13.3737C13.8486 12.1047 12.8001 11.0759 11.5066 11.0759C10.2131 11.0759 9.16455 12.1047 9.16455 13.3737C9.16455 14.6428 10.2131 15.6716 11.5066 15.6716Z" fill="url(#paint2_linear_73_7341)"/>
<path d="M11.349 15.2919C12.557 15.2919 13.5362 14.3311 13.5362 13.1459C13.5362 11.9608 12.557 11 11.349 11C10.141 11 9.16174 11.9608 9.16174 13.1459C9.16174 14.3311 10.141 15.2919 11.349 15.2919Z" fill="#FFCF06"/>
</g>
<path d="M29.5527 27.7148C28.6504 27.7148 27.8411 27.5716 27.125 27.2852C26.4089 26.9915 25.8001 26.5869 25.2988 26.0713C24.8047 25.5557 24.4251 24.9577 24.1602 24.2773C23.8952 23.5898 23.7627 22.8594 23.7627 22.0859V21.6562C23.7627 20.7754 23.888 19.9697 24.1387 19.2393C24.3893 18.5088 24.7474 17.875 25.2129 17.3379C25.6855 16.8008 26.2585 16.389 26.9316 16.1025C27.6048 15.8089 28.3639 15.6621 29.209 15.6621C30.0326 15.6621 30.763 15.7982 31.4004 16.0703C32.0378 16.3424 32.5713 16.7292 33.001 17.2305C33.4378 17.7318 33.7673 18.3333 33.9893 19.0352C34.2113 19.7298 34.3223 20.5033 34.3223 21.3555V22.6445H25.084V20.582H31.2822V20.3457C31.2822 19.916 31.2035 19.5329 31.0459 19.1963C30.8955 18.8525 30.6663 18.5804 30.3584 18.3799C30.0505 18.1794 29.6566 18.0791 29.1768 18.0791C28.7686 18.0791 28.4176 18.1686 28.124 18.3477C27.8304 18.5267 27.5905 18.7773 27.4043 19.0996C27.2253 19.4219 27.0892 19.8014 26.9961 20.2383C26.9102 20.668 26.8672 21.1406 26.8672 21.6562V22.0859C26.8672 22.5514 26.9316 22.9811 27.0605 23.375C27.1966 23.7689 27.3864 24.109 27.6299 24.3955C27.8805 24.682 28.1813 24.904 28.5322 25.0615C28.8903 25.2191 29.2949 25.2979 29.7461 25.2979C30.3047 25.2979 30.8239 25.1904 31.3037 24.9756C31.7907 24.7536 32.2096 24.4206 32.5605 23.9766L34.0645 25.6094C33.821 25.9603 33.488 26.2969 33.0654 26.6191C32.6501 26.9414 32.1488 27.2064 31.5615 27.4141C30.9743 27.6146 30.3047 27.7148 29.5527 27.7148ZM38.7262 15.877L40.649 19.4111L42.6256 15.877H45.9234L42.6363 21.5596L46.0738 27.5H42.7652L40.6705 23.7617L38.5758 27.5H35.2672L38.7047 21.5596L35.4176 15.877H38.7262ZM50.843 15.877V27.5H47.7385V15.877H50.843ZM47.5451 12.8477C47.5451 12.3965 47.7027 12.0241 48.0178 11.7305C48.3329 11.4368 48.7554 11.29 49.2854 11.29C49.8081 11.29 50.2271 11.4368 50.5422 11.7305C50.8645 12.0241 51.0256 12.3965 51.0256 12.8477C51.0256 13.2988 50.8645 13.6712 50.5422 13.9648C50.2271 14.2585 49.8081 14.4053 49.2854 14.4053C48.7554 14.4053 48.3329 14.2585 48.0178 13.9648C47.7027 13.6712 47.5451 13.2988 47.5451 12.8477ZM56.5789 18.3584V27.5H53.4852V15.877H56.3855L56.5789 18.3584ZM56.1277 21.2803H55.2898C55.2898 20.4209 55.4008 19.6475 55.6229 18.96C55.8449 18.2653 56.1564 17.6745 56.5574 17.1875C56.9585 16.6934 57.4347 16.3174 57.9861 16.0596C58.5447 15.7946 59.1678 15.6621 59.8553 15.6621C60.3995 15.6621 60.8973 15.7409 61.3484 15.8984C61.7996 16.056 62.1863 16.3066 62.5086 16.6504C62.838 16.9941 63.0887 17.4489 63.2605 18.0146C63.4396 18.5804 63.5291 19.2715 63.5291 20.0879V27.5H60.4139V20.0771C60.4139 19.5615 60.3423 19.1605 60.199 18.874C60.0558 18.5876 59.8445 18.387 59.5652 18.2725C59.2931 18.1507 58.9565 18.0898 58.5555 18.0898C58.1401 18.0898 57.7785 18.1722 57.4705 18.3369C57.1697 18.5016 56.9191 18.7308 56.7186 19.0244C56.5252 19.3109 56.3784 19.6475 56.2781 20.0342C56.1779 20.4209 56.1277 20.8363 56.1277 21.2803ZM72.8959 24.9648V11H76.0111V27.5H73.2074L72.8959 24.9648ZM65.5482 21.8281V21.6025C65.5482 20.7145 65.6485 19.9089 65.849 19.1855C66.0495 18.4551 66.3432 17.8285 66.7299 17.3057C67.1166 16.7829 67.5928 16.3783 68.1586 16.0918C68.7243 15.8053 69.3689 15.6621 70.0922 15.6621C70.7725 15.6621 71.3669 15.8053 71.8754 16.0918C72.391 16.3783 72.8279 16.7865 73.1859 17.3164C73.5512 17.8392 73.8448 18.4587 74.0668 19.1748C74.2888 19.8838 74.4499 20.6608 74.5502 21.5059V22C74.4499 22.8092 74.2888 23.5612 74.0668 24.2559C73.8448 24.9505 73.5512 25.5592 73.1859 26.082C72.8279 26.5977 72.391 26.9987 71.8754 27.2852C71.3598 27.5716 70.7582 27.7148 70.0707 27.7148C69.3474 27.7148 68.7029 27.568 68.1371 27.2744C67.5785 26.9808 67.1059 26.569 66.7191 26.0391C66.3396 25.5091 66.0495 24.8861 65.849 24.1699C65.6485 23.4538 65.5482 22.6732 65.5482 21.8281ZM68.642 21.6025V21.8281C68.642 22.3079 68.6778 22.7555 68.7494 23.1709C68.8282 23.5863 68.9535 23.9551 69.1254 24.2773C69.3044 24.5924 69.5336 24.8395 69.8129 25.0186C70.0993 25.1904 70.4467 25.2764 70.8549 25.2764C71.3848 25.2764 71.8217 25.1582 72.1654 24.9219C72.5092 24.6784 72.7706 24.3454 72.9496 23.9229C73.1358 23.5003 73.2432 23.0133 73.2719 22.4619V21.0547C73.2504 20.6035 73.1859 20.1989 73.0785 19.8408C72.9783 19.4756 72.8279 19.1641 72.6273 18.9062C72.434 18.6484 72.1905 18.4479 71.8969 18.3047C71.6104 18.1615 71.2702 18.0898 70.8764 18.0898C70.4753 18.0898 70.1316 18.1829 69.8451 18.3691C69.5587 18.5482 69.3259 18.7952 69.1469 19.1104C68.975 19.4255 68.8461 19.7979 68.7602 20.2275C68.6814 20.6501 68.642 21.1084 68.642 21.6025ZM83.9277 27.7148C83.0254 27.7148 82.2161 27.5716 81.5 27.2852C80.7839 26.9915 80.1751 26.5869 79.6738 26.0713C79.1797 25.5557 78.8001 24.9577 78.5352 24.2773C78.2702 23.5898 78.1377 22.8594 78.1377 22.0859V21.6562C78.1377 20.7754 78.263 19.9697 78.5137 19.2393C78.7643 18.5088 79.1224 17.875 79.5879 17.3379C80.0605 16.8008 80.6335 16.389 81.3066 16.1025C81.9798 15.8089 82.7389 15.6621 83.584 15.6621C84.4076 15.6621 85.138 15.7982 85.7754 16.0703C86.4128 16.3424 86.9463 16.7292 87.376 17.2305C87.8128 17.7318 88.1423 18.3333 88.3643 19.0352C88.5863 19.7298 88.6973 20.5033 88.6973 21.3555V22.6445H79.459V20.582H85.6572V20.3457C85.6572 19.916 85.5785 19.5329 85.4209 19.1963C85.2705 18.8525 85.0413 18.5804 84.7334 18.3799C84.4255 18.1794 84.0316 18.0791 83.5518 18.0791C83.1436 18.0791 82.7926 18.1686 82.499 18.3477C82.2054 18.5267 81.9655 18.7773 81.7793 19.0996C81.6003 19.4219 81.4642 19.8014 81.3711 20.2383C81.2852 20.668 81.2422 21.1406 81.2422 21.6562V22.0859C81.2422 22.5514 81.3066 22.9811 81.4355 23.375C81.5716 23.7689 81.7614 24.109 82.0049 24.3955C82.2555 24.682 82.5563 24.904 82.9072 25.0615C83.2653 25.2191 83.6699 25.2979 84.1211 25.2979C84.6797 25.2979 85.1989 25.1904 85.6787 24.9756C86.1657 24.7536 86.5846 24.4206 86.9355 23.9766L88.4395 25.6094C88.196 25.9603 87.863 26.2969 87.4404 26.6191C87.0251 26.9414 86.5238 27.2064 85.9365 27.4141C85.3493 27.6146 84.6797 27.7148 83.9277 27.7148ZM93.7027 18.4121V27.5H90.609V15.877H93.5201L93.7027 18.4121ZM97.2047 15.8018L97.151 18.6699C97.0006 18.6484 96.818 18.6305 96.6031 18.6162C96.3954 18.5947 96.2057 18.584 96.0338 18.584C95.5969 18.584 95.2174 18.6413 94.8951 18.7559C94.58 18.8633 94.315 19.0244 94.1002 19.2393C93.8925 19.4541 93.735 19.7155 93.6275 20.0234C93.5273 20.3314 93.47 20.6823 93.4557 21.0762L92.8326 20.8828C92.8326 20.1309 92.9078 19.4398 93.0582 18.8096C93.2086 18.1722 93.427 17.6172 93.7135 17.1445C94.0071 16.6719 94.3652 16.3066 94.7877 16.0488C95.2102 15.791 95.6936 15.6621 96.2379 15.6621C96.4098 15.6621 96.5852 15.6764 96.7643 15.7051C96.9433 15.7266 97.0901 15.7588 97.2047 15.8018Z" fill="white"/>
<defs>
<linearGradient id="paint0_linear_73_7341" x1="2.3822" y1="19.9916" x2="18.7764" y2="19.9916" gradientUnits="userSpaceOnUse">
<stop stop-color="#00D6FF"/>
<stop offset="1" stop-color="#0071BC"/>
</linearGradient>
<linearGradient id="paint1_linear_73_7341" x1="8.67501e-06" y1="22.3906" x2="12.0427" y2="22.3906" gradientUnits="userSpaceOnUse">
<stop stop-color="#00D6FF"/>
<stop offset="1" stop-color="#0071BC"/>
</linearGradient>
<linearGradient id="paint2_linear_73_7341" x1="9.84967" y1="11.7509" x2="13.1004" y2="15.0613" gradientUnits="userSpaceOnUse">
<stop stop-color="#00D6FF"/>
<stop offset="1" stop-color="#0071BC"/>
</linearGradient>
<clipPath id="clip0_73_7341">
<rect width="19" height="18" fill="white" transform="translate(0 11)"/>
</clipPath>
</defs>
</svg>
