<svg width="200" height="33" viewBox="0 0 200 33" fill="none" xmlns="http://www.w3.org/2000/svg">
    <g clip-path="url(#clip0_1_8327)">
        <path
            d="M23.6385 31.9595C21.5752 31.7397 19.4996 31.6529 17.4249 31.6994H5.57471C2.71521 31.6994 1.65901 31.7351 0.0411987 31.8116C0.28376 30.0066 0.383666 28.1856 0.340022 26.3652V6.00739C0.364834 4.18732 0.265002 2.36767 0.0411987 0.560965C1.58687 0.63746 2.61732 0.673158 5.57471 0.673158H17.5949C19.4687 0.6977 21.3424 0.610844 23.2057 0.413071V7.3843C21.3424 7.18653 19.4687 7.09967 17.5949 7.12421H7.80563V12.6063H15.9101C17.8029 12.6376 19.6958 12.5508 21.5776 12.3462V19.241C19.6954 19.0418 17.8028 18.9549 15.9101 18.9809H7.75926V25.2484H17.4558C19.5198 25.2924 21.5846 25.2106 23.6385 25.0036V31.9595Z"
            fill="white" />
        <path
            d="M41.285 27.1097C40.2545 28.6753 39.4765 29.9808 38.5388 31.6994H28.5538C30.6147 29.2363 31.3412 28.2674 32.4334 26.7732L40.7234 15.2531L33.6751 5.44642C32.5107 3.76864 31.3772 2.31524 29.9861 0.673157H39.7445C40.5253 2.39164 41.458 4.03844 42.5318 5.59432L45.3913 9.91883L48.2199 5.55861C49.2828 4.01484 50.2036 2.3798 50.9712 0.673157H60.6523C59.2973 2.35094 58.3905 3.50856 57.0457 5.36993L49.9614 15.2174L58.2874 26.7732C59.493 28.4509 60.5493 29.7973 62.131 31.6994H52.1769C51.4607 30.3531 50.7445 29.0884 49.4616 27.1097L45.3398 20.8066L41.285 27.1097Z"
            fill="white" />
        <path
            d="M105.405 6.04309C105.451 4.20961 105.339 2.37556 105.07 0.560966C106.574 0.637461 107.517 0.673159 110.645 0.673159H118.517C123.154 0.673159 126.879 1.94297 129.404 4.3653C132.155 7.04772 133.551 10.9643 133.551 15.9262C133.551 21.0259 132.042 25.1362 129.177 27.9665C126.653 30.4296 123.077 31.6994 118.594 31.6994H110.645C107.744 31.6994 106.688 31.7351 105.106 31.8116C105.346 30.0064 105.446 28.1856 105.405 26.3652V6.04309ZM117.925 25.1719C120.372 25.1719 122.108 24.5395 123.463 23.1932C125.009 21.6276 125.833 19.1135 125.833 16.0537C125.833 12.8817 125.122 10.5716 123.649 9.11818C122.335 7.81267 120.527 7.216 117.811 7.216H112.875V25.1872L117.925 25.1719Z"
            fill="white" />
        <path
            d="M166.773 16.0384C166.773 25.8807 160.709 32.4083 151.553 32.4083C142.398 32.4083 136.37 26.0235 136.37 16.1455C136.37 6.26747 142.326 0.0153008 151.59 0.0153008C160.853 0.0153008 166.773 6.26748 166.773 16.0384ZM158.937 16.1098C158.937 10.0718 156.149 6.42046 151.59 6.42046C147.03 6.42046 144.17 10.1126 144.17 16.1098C144.17 22.1886 146.994 25.9572 151.59 25.9572C156.185 25.9572 158.937 22.2243 158.937 16.1098Z"
            fill="white" />
        <path
            d="M199.995 16.0384C199.995 25.8807 193.931 32.4083 184.775 32.4083C175.62 32.4083 169.597 26.0235 169.597 16.1455C169.597 6.26747 175.547 0.0153008 184.816 0.0153008C194.085 0.0153008 199.995 6.26748 199.995 16.0384ZM192.163 16.1098C192.163 10.0718 189.376 6.42046 184.816 6.42046C180.257 6.42046 177.392 10.1126 177.392 16.1098C177.392 22.1886 180.221 25.9572 184.816 25.9572C189.412 25.9572 192.163 22.2243 192.163 16.1098Z"
            fill="white" />
        <path
            d="M94.384 17.3133C87.1967 12.3871 83.2243 15.0236 77.2889 10.3115C73.1053 6.98652 72.6209 4.04403 73.131 1.64209C70.9234 2.84964 69.0278 4.54612 67.5923 6.59895C67.5923 8.33793 68.1746 10.4339 69.7975 13.0143C74.11 19.8733 79.0716 18.6239 84.5793 26.1204C85.6478 27.6119 86.488 29.2512 87.073 30.9855C89.4246 30.0749 91.5317 28.6387 93.2298 26.7889C94.9279 24.9392 96.1711 22.726 96.8623 20.3221C96.931 20.0875 96.9928 19.8529 97.0477 19.6184C96.2481 18.7554 95.3549 17.9824 94.384 17.3133Z"
            fill="url(#paint0_linear_1_8327)" />
        <path
            d="M77.1189 10.3574C83.1006 15.0338 87.0936 12.4227 94.3326 17.3031C95.3106 17.969 96.2124 18.7385 97.022 19.598C97.2708 18.5951 97.4176 17.57 97.46 16.5382C96.9321 16.129 96.3779 15.7542 95.8009 15.4163C88.2477 11.0051 84.4351 13.8863 78.1545 9.58734C73.8833 6.68054 73.1001 3.89614 73.3577 1.5503L72.9301 1.76958C72.42 4.14092 72.9043 7.06302 77.1189 10.3574Z"
            fill="#FFCF06" />
        <path
            d="M68.2724 14.7176C66.7268 12.2901 66.1291 10.3166 66.1343 8.6847C65.1511 10.0545 64.4042 11.5761 63.9239 13.1877C61.5178 21.2961 66.397 29.7463 74.821 32.0564C78.1618 32.9827 81.7152 32.82 84.9554 31.5923C84.3941 29.9502 83.5827 28.4024 82.5493 27.0027C77.2219 19.9702 72.4355 21.1584 68.2724 14.7176Z"
            fill="url(#paint1_linear_1_8327)" />
        <path
            d="M83.992 8.48582C86.3168 8.48582 88.2014 6.62045 88.2014 4.3194C88.2014 2.01836 86.3168 0.152988 83.992 0.152988C81.6672 0.152988 79.7826 2.01836 79.7826 4.3194C79.7826 6.62045 81.6672 8.48582 83.992 8.48582Z"
            fill="url(#paint2_linear_1_8327)" />
        <path
            d="M83.7138 7.79227C85.8849 7.79227 87.6449 6.05019 87.6449 3.90123C87.6449 1.75228 85.8849 0.0102005 83.7138 0.0102005C81.5426 0.0102005 79.7826 1.75228 79.7826 3.90123C79.7826 6.05019 81.5426 7.79227 83.7138 7.79227Z"
            fill="#FFCF06" />
    </g>
    <defs>
        <linearGradient id="paint0_linear_1_8327" x1="67.5923" y1="16.3189" x2="97.0581"
            y2="16.3189" gradientUnits="userSpaceOnUse">
            <stop stop-color="#00D6FF" />
            <stop offset="1" stop-color="#0071BC" />
        </linearGradient>
        <linearGradient id="paint1_linear_1_8327" x1="63.3108" y1="20.6689" x2="84.9554"
            y2="20.6689" gradientUnits="userSpaceOnUse">
            <stop stop-color="#00D6FF" />
            <stop offset="1" stop-color="#0071BC" />
        </linearGradient>
        <linearGradient id="paint2_linear_1_8327" x1="81.0191" y1="1.37181" x2="86.9089"
            y2="7.32744" gradientUnits="userSpaceOnUse">
            <stop stop-color="#00D6FF" />
            <stop offset="1" stop-color="#0071BC" />
        </linearGradient>
        <clipPath id="clip0_1_8327">
            <rect width="200" height="32.6531" fill="white" />
        </clipPath>
    </defs>
</svg>
    